<svg width="24" height="24" viewBox="0 0 24 24" fill="none" xmlns="http://www.w3.org/2000/svg">
    <!-- Bentuk gelembung percakapan -->
    <path d="M20 2H4C2.9 2 2 2.9 2 4V16C2 17.1 2.9 18 4 18H18L22 22V4C22 2.9 21.1 2 20 2Z" fill="#FFFFFF"/>
    <!-- Hati di dalam gelembung -->
    <path d="M12 14.5L11.2929 13.7929C9.72515 12.2252 8 10.8333 8 9C8 7.34315 9.34315 6 11 6C11.732 6 12.433 6.31179 12.9239 6.80269L12 7.7267L11.0761 6.80269C11.567 6.31179 12.268 6 13 6C14.6569 6 16 7.34315 16 9C16 10.8333 14.2748 12.2252 12.7071 13.7929L12 14.5Z" fill="#F48FB1"/>
</svg>
